<svg width="72" height="72" viewBox="0 0 72 72" fill="none" xmlns="http://www.w3.org/2000/svg">
<rect width="72" height="72" rx="36" fill="white"/>
<g clip-path="url(#clip0)">
<g clip-path="url(#clip1)">
<path d="M39.9277 29.7495H47.9263V32.0464H39.9277V29.7495Z" fill="#00A0C1"/>
<path d="M39.9277 35.4917H47.9263V37.7886H39.9277V35.4917Z" fill="#00A0C1"/>
<path d="M39.9277 41.2339H47.9263V43.5308H39.9277V41.2339Z" fill="#00A0C1"/>
<path d="M50.2109 24.0073H22.7873C22.1813 24.0079 21.6004 24.2501 21.172 24.6807C20.7435 25.1114 20.5026 25.6952 20.502 26.3042V46.9761C20.5026 47.5851 20.7435 48.169 21.172 48.5996C21.6004 49.0302 22.1813 49.2724 22.7873 49.273H50.2109C50.8168 49.2721 51.3975 49.0298 51.8259 48.5992C52.2543 48.1687 52.4953 47.585 52.4962 46.9761V26.3042C52.4956 25.6952 52.2547 25.1114 51.8262 24.6807C51.3978 24.2501 50.8169 24.0079 50.2109 24.0073ZM22.7873 26.3042H35.3564V46.9761H22.7873V26.3042ZM37.6418 46.9761V26.3042H50.2109L50.2132 46.9761H37.6418Z" fill="#00A0C1"/>
</g>
</g>
<defs>
<clipPath id="clip0">
<rect width="32" height="26.353" fill="white" transform="translate(20 23)"/>
</clipPath>
<clipPath id="clip1">
<rect width="32" height="25.28" fill="white" transform="translate(20.5 24)"/>
</clipPath>
</defs>
</svg>
