<svg width="73" height="72" viewBox="0 0 73 72" fill="none" xmlns="http://www.w3.org/2000/svg">
<rect x="0.5" width="72" height="72" rx="36" fill="white"/>
<g clip-path="url(#clip0)">
<path d="M31.0431 42.6624C30.5024 42.1193 30.7843 42.2724 29.4801 41.9218C28.8884 41.7624 28.3682 41.4562 27.8978 41.0893L25.0748 48.0418C24.8016 48.7149 25.3119 49.4462 26.0349 49.4187L29.3134 49.2931L31.5683 51.6856C32.0661 52.2131 32.9397 52.0487 33.2128 51.3756L36.4515 43.3993C35.777 43.7768 35.0285 43.9981 34.2544 43.9981C33.0411 43.9981 31.9012 43.5237 31.0431 42.6624ZM48.8188 48.0418L45.9958 41.0893C45.5254 41.4568 45.0052 41.7624 44.4135 41.9218C43.1024 42.2743 43.3899 42.1206 42.8504 42.6624C41.9924 43.5237 40.8519 43.9981 39.6385 43.9981C38.8645 43.9981 38.1159 43.7762 37.4415 43.3993L40.6801 51.3756C40.9533 52.0487 41.8275 52.2131 42.3247 51.6856L44.5802 49.2931L47.8587 49.4187C48.5817 49.4462 49.0919 48.7143 48.8188 48.0418ZM41.3646 41.2481C42.3153 40.2762 42.4242 40.3599 43.7782 39.9893C44.6424 39.7524 45.3182 39.0618 45.5496 38.1781C46.0151 36.4031 45.8944 36.6174 47.1643 35.3187C47.7971 34.6718 48.0441 33.7287 47.8127 32.8449C47.3479 31.0712 47.3472 31.3187 47.8127 29.5431C48.0441 28.6593 47.7971 27.7162 47.1643 27.0693C45.8944 25.7706 46.0151 25.9843 45.5496 24.2099C45.3182 23.3262 44.6424 22.6356 43.7782 22.3987C42.0434 21.9231 42.2525 22.0474 40.9813 20.7481C40.3485 20.1012 39.4257 19.8481 38.5615 20.0849C36.8273 20.5599 37.0694 20.5606 35.3321 20.0849C34.4679 19.8481 33.5451 20.1006 32.9123 20.7481C31.6423 22.0468 31.8514 21.9231 30.116 22.3987C29.2518 22.6356 28.576 23.3262 28.3446 24.2099C27.8798 25.9843 27.9999 25.7706 26.7299 27.0693C26.0971 27.7162 25.8495 28.6593 26.0815 29.5431C26.5463 31.3156 26.547 31.0681 26.0815 32.8443C25.8501 33.7281 26.0971 34.6712 26.7299 35.3187C27.9999 36.6174 27.8791 36.4031 28.3446 38.1781C28.576 39.0618 29.2518 39.7524 30.116 39.9893C31.5086 40.3706 31.6125 40.3106 32.529 41.2481C33.3522 42.0899 34.6346 42.2406 35.6239 41.6118C36.0196 41.3595 36.4785 41.2256 36.9471 41.2256C37.4157 41.2256 37.8746 41.3595 38.2703 41.6118C39.259 42.2406 40.5414 42.0899 41.3646 41.2481ZM31.0767 30.9956C31.0767 27.6812 33.705 24.9943 36.9468 24.9943C40.1886 24.9943 42.8168 27.6812 42.8168 30.9956C42.8168 34.3099 40.1886 36.9968 36.9468 36.9968C33.705 36.9968 31.0767 34.3099 31.0767 30.9956Z" fill="#00A0C1"/>
</g>
<defs>
<clipPath id="clip0">
<rect width="23.8933" height="32" fill="white" transform="translate(25 20)"/>
</clipPath>
</defs>
</svg>
