<svg width="72" height="72" viewBox="0 0 72 72" fill="none" xmlns="http://www.w3.org/2000/svg">
<rect width="72" height="72" rx="36" fill="white"/>
<g clip-path="url(#clip0)">
<g clip-path="url(#clip1)">
<path d="M35.9029 35.7044C38.5034 35.7044 40.5259 33.5697 40.5259 30.9499C40.5259 28.3301 38.4071 26.2925 35.8066 26.2925C33.2062 26.2925 31.1836 28.4271 31.1836 30.9499C31.1836 33.5697 33.3025 35.7044 35.9029 35.7044ZM35.8066 28.2331C35.9029 28.2331 35.9029 28.2331 35.8066 28.2331C37.3476 28.2331 38.5997 29.4945 38.5997 31.047C38.5997 32.5994 37.3476 33.7638 35.8066 33.7638C34.2656 33.7638 33.1099 32.5024 33.1099 31.047C33.1099 29.4945 34.3619 28.2331 35.8066 28.2331Z" fill="#00A0C1"/>
<path d="M50.1585 35.122C48.3286 33.4725 45.9208 32.5992 43.4166 32.6963H42.6461C42.4535 33.4725 42.1645 34.1517 41.7793 34.7339C42.3572 34.6369 42.8387 34.6369 43.4166 34.6369C45.2466 34.5398 47.0765 35.122 48.5212 36.1894V43.1755H50.4475V35.4131L50.1585 35.122Z" fill="#00A0C1"/>
<path d="M41.2019 26.4859C41.6835 25.3215 43.0318 24.7394 44.2839 25.2245C45.4397 25.7097 46.0175 27.0681 45.536 28.3295C45.1507 29.2027 44.2839 29.7849 43.4171 29.7849C43.2245 29.7849 42.9355 29.7849 42.7429 29.6879C42.8392 30.173 42.8392 30.6582 42.8392 31.0463V31.6285C43.0318 31.6285 43.2245 31.7255 43.4171 31.7255C45.8249 31.7255 47.7512 29.7849 47.7512 27.4562C47.7512 25.0304 45.8249 23.0898 43.5134 23.0898C41.9724 23.0898 40.624 23.8661 39.8535 25.2245C40.3351 25.5156 40.8166 25.9037 41.2019 26.4859Z" fill="#00A0C1"/>
<path d="M30.2209 34.8306C29.8356 34.2484 29.5467 33.5692 29.3541 32.793H28.5836C26.0794 32.6959 23.6716 33.5692 21.8417 35.1217L21.5527 35.4128V43.1752H23.479V36.189C25.02 35.1217 26.7536 34.5395 28.5836 34.6365C29.1615 34.6365 29.7393 34.7336 30.2209 34.8306Z" fill="#00A0C1"/>
<path d="M28.5847 31.6291C28.7773 31.6291 28.9699 31.6291 29.1626 31.5321V30.9499C29.1626 30.4648 29.1626 29.9796 29.2589 29.5915C29.0663 29.6885 28.7773 29.6885 28.5847 29.6885C27.3326 29.6885 26.2732 28.6212 26.2732 27.3598C26.2732 26.0984 27.3326 25.0311 28.5847 25.0311C29.5478 25.0311 30.4146 25.6133 30.7999 26.4865C31.1851 26.0014 31.763 25.5162 32.2446 25.1281C30.9925 23.0905 28.3921 22.4113 26.3695 23.6727C24.3469 24.9341 23.6727 27.5539 24.9248 29.5915C25.6953 30.8529 27.0437 31.6291 28.5847 31.6291Z" fill="#00A0C1"/>
<path d="M43.8013 40.9435L43.6087 40.6524C41.6824 38.5177 38.9857 37.2563 36.0963 37.3534C33.2069 37.2563 30.4138 38.5177 28.4875 40.6524L28.2949 40.9435V48.3178C28.2949 49.1911 28.9691 49.9673 29.9322 49.9673H42.2603C43.1271 49.9673 43.8976 49.1911 43.8976 48.3178V40.9435H43.8013ZM41.875 48.0267H30.2212V41.6227C31.7622 40.0702 33.8811 39.294 36.0963 39.294C38.2152 39.1969 40.334 40.0702 41.875 41.6227V48.0267Z" fill="#00A0C1"/>
</g>
</g>
<defs>
<clipPath id="clip0">
<rect width="32" height="26.353" fill="white" transform="translate(20 23)"/>
</clipPath>
<clipPath id="clip1">
<rect width="29" height="27" fill="white" transform="translate(21.5 23)"/>
</clipPath>
</defs>
</svg>
